<svg xmlns="http://www.w3.org/2000/svg" viewBox="0 0 140.223 25.324"><defs><style>.a{fill:#000100;}.b{fill:#e03126;}</style></defs><g transform="translate(0 0.1)"><path class="a" d="M460.928,25.555h-5.441V7.13a1.908,1.908,0,0,0-.589-1.542,2.414,2.414,0,0,0-1.57-.533,1.992,1.992,0,0,0-2.187,2.075V25.583H445.7V7.915a7.615,7.615,0,0,1,15.228-.028Z" transform="translate(-320.706 -0.359)"/><path class="a" d="M356.678,19.314a1.577,1.577,0,0,1-1.655,1.542,1.682,1.682,0,0,1-1.655-1.542V6.526a1.54,1.54,0,0,1,1.655-1.542,1.577,1.577,0,0,1,1.655,1.542ZM363.745.3a7.4,7.4,0,0,0-4.375,1.4A7.156,7.156,0,0,0,355,.3a6.888,6.888,0,0,0-7.1,6.983V18.529a7.1,7.1,0,0,0,14.191,0v-12a1.577,1.577,0,0,1,1.655-1.542A1.558,1.558,0,0,1,365.4,6.526V25.484h5.441V7.311A6.911,6.911,0,0,0,363.745.3" transform="translate(-250.333 -0.288)"/><path class="a" d="M15.228,12.792V7.716C15.228,3.2,12.34.2,7.628.2S0,3.2,0,7.716v7.151c0,7.1,6.03,10.545,13.293,10.545V20.757c-4.375,0-7.852-1.655-7.852-5.889V6.931A2.044,2.044,0,0,1,7.628,4.743,2.044,2.044,0,0,1,9.816,6.931v5.833h5.413Z" transform="translate(0 -0.216)"/><path class="a" d="M287.213,8.906a8.446,8.446,0,0,0-2.945,1.038V9.327c0-3.2,2.58-4.6,5.272-4.235V.353C283.343.044,278.8,3.634,278.8,9.411V25.537h5.5V18.189c0-3.365.925-4.431,2.187-4.711.982-.224,2.187.533,2.187,2.552v9.507h5.441V14.88c-.056-4.908-3.225-6.45-6.9-5.973" transform="translate(-200.612 -0.313)"/><path class="a" d="M451.069,6.731a2.188,2.188,0,0,1,4.375,0V25.268h5.413V7.516C460.856,3,457.968,0,453.228,0S445.6,3,445.6,7.516V25.268h5.441V6.731Z" transform="translate(-320.633 -0.072)"/><path class="a" d="M74.141,6.931a2.187,2.187,0,0,1,4.375,0V25.412h5.413V7.716C83.928,3.2,81.04.2,76.3.2s-7.6,3-7.6,7.516v17.7h5.441Z" transform="translate(-49.433 -0.216)"/><path class="a" d="M216.2.3c-4.74,0-7.432,3-7.432,7.516V10.2h5.413V7.059c0-1.206.561-2.187,1.991-2.187a1.924,1.924,0,0,1,2.047,2.187V18.753a2.187,2.187,0,1,1-4.375,0v-3.9H208.4v3.113c0,4.515,2.889,7.516,7.628,7.516s7.628-3,7.628-7.516V7.816C223.656,3.3,220.964.3,216.2.3" transform="translate(-149.955 -0.288)"/><path class="b" d="M149.369,9.014a5.393,5.393,0,0,0,1.655-3.786c0-2.973-1.683-4.8-5.749-4.8h-1.01A4.97,4.97,0,0,1,143.592.4a.863.863,0,0,1-.785-.5h-4.88a6.9,6.9,0,0,0,1.4,2.58,6.193,6.193,0,0,0,4.936,2.244h.224c1.374,0,1.739.617,1.767,1.29.028.729-.533,1.486-1.739,1.486H144.4a7.8,7.8,0,0,0-8.1,7.993v1.346h5.441V14.708a2.667,2.667,0,0,1,5.328,0v3.253a2.5,2.5,0,0,1-2.664,2.58V25.2h0a7.8,7.8,0,0,0,8.1-7.993V15.493a8.033,8.033,0,0,0-3.141-6.478" transform="translate(-98.075)"/></g></svg>